<svg width="48" height="48" viewBox="0 0 48 48" fill="none" xmlns="http://www.w3.org/2000/svg">
<g clip-path="url(#clip0_5841_3)">
<path d="M21.0002 0.131253C15.7408 0.853128 11.0908 3.06563 7.41583 6.60938C3.32833 10.5375 0.85333 15.4594 0.14083 21.0938C-0.0560451 22.6313 -0.00917013 26.2219 0.225205 27.675C1.06895 32.8594 3.34708 37.3125 7.02208 40.9688C10.2377 44.175 13.8283 46.2281 18.094 47.2969C20.3908 47.8688 21.1408 47.9531 23.9533 47.9531C25.5846 47.9531 26.7658 47.9063 27.2815 47.8313C32.6346 46.9969 36.9377 44.8969 40.7252 41.25C42.7033 39.3469 44.6158 36.7031 45.6658 34.4344C46.9033 31.7531 47.494 29.7281 47.8596 26.9719C48.0283 25.6875 48.0471 22.7438 47.8971 21.3938C47.494 17.625 46.069 13.6969 44.0252 10.6875C42.6565 8.68125 40.5002 6.34688 38.8127 5.05313C35.3908 2.4375 31.9408 0.946878 27.6096 0.215628C26.4471 0.0187529 22.2096 -0.0281221 21.0002 0.131253ZM37.8752 24V34.4063H24.0002H10.1252V24V13.5938H24.0002H37.8752V24Z" fill="#4989F4"/>
<path d="M12.3943 16.3781L12.4225 16.8094L18.2162 20.55L24.0006 24.2812L29.8131 20.5031L35.6256 16.7344V16.3312V15.9375H23.9912H12.3662L12.3943 16.3781Z" fill="#4989F4"/>
<path d="M33.028 21.178C31.6311 22.0874 30.4873 22.8655 30.5061 22.9124C30.5155 22.9687 31.6686 24.5062 33.0561 26.3437L35.578 29.6812L35.6061 27.1124C35.6155 25.7062 35.6155 23.4187 35.6061 22.0405L35.578 19.5374L33.028 21.178Z" fill="#4989F4"/>
<path d="M12.375 24.6282C12.375 28.9688 12.3938 29.6438 12.5063 29.5313C12.9281 29.1001 17.5125 22.9126 17.4563 22.8563C17.3813 22.7813 12.7875 19.8094 12.5438 19.6782C12.3844 19.5938 12.375 19.8094 12.375 24.6282Z" fill="#4989F4"/>
<path d="M19.3784 24.3562C19.0222 24.7593 13.5941 31.9968 13.6222 32.0249C13.6409 32.0437 18.3284 32.0531 24.0378 32.0437L34.4253 32.0156L31.5472 28.2187C29.9722 26.1281 28.6222 24.3656 28.5566 24.2999C28.4534 24.1968 28.0409 24.4312 26.2691 25.5843C25.0691 26.3624 24.0566 26.9999 24.0003 26.9999C23.9534 26.9999 22.9972 26.4093 21.8816 25.6781C19.3691 24.0562 19.5566 24.1593 19.3784 24.3562Z" fill="#4989F4"/>
<path d="M10.125 24V34.3125H24H37.875V24V13.6875H24H10.125V24ZM35.6156 16.3312V16.8281L29.8969 20.5312C26.7563 22.5656 24.1219 24.2437 24.0469 24.2625C23.9625 24.2812 21.3094 22.6219 18.1406 20.5781L12.375 16.8562V16.35V15.8437H24H35.625L35.6156 16.3312ZM15.0938 21.2344C16.3594 22.0406 17.4469 22.7531 17.5031 22.8187C17.5969 22.9031 17.5031 23.0812 17.0813 23.625C16.7813 24.0094 15.6 25.5656 14.4563 27.0844L12.375 29.8406V24.6562V19.4812L12.5906 19.6125C12.7031 19.6969 13.8281 20.4187 15.0938 21.2344ZM35.625 24.6656V29.8312L35.1281 29.1937C34.8563 28.8375 33.6656 27.2625 32.4844 25.7062C30.7875 23.4656 30.3656 22.8375 30.4688 22.7719C30.5438 22.7344 31.7063 21.975 33.0469 21.1031C34.3875 20.2219 35.5125 19.5094 35.5594 19.5C35.5969 19.5 35.625 21.825 35.625 24.6656ZM21.7219 25.5094C23.0719 26.3812 23.9719 26.9062 24.075 26.8781C24.1594 26.8594 25.1813 26.2219 26.3438 25.4625C28.3406 24.1594 28.4531 24.1031 28.6031 24.2531C28.8656 24.525 34.5 32.0062 34.5 32.0812C34.5 32.1281 29.775 32.1562 23.9906 32.1562C15.6281 32.1562 13.4906 32.1281 13.5188 32.0344C13.5656 31.9125 19.4344 24.1031 19.4906 24.1031C19.5094 24.0937 20.5125 24.7312 21.7219 25.5094Z" fill="white"/>
</g>
<defs>
<clipPath id="clip0_5841_3">
<rect width="48" height="48" fill="white"/>
</clipPath>
</defs>
</svg>
